<?xml version="1.0" standalone="no"?>
<!DOCTYPE svg PUBLIC "-//W3C//DTD SVG 20010904//EN"
 "http://www.w3.org/TR/2001/REC-SVG-20010904/DTD/svg10.dtd">
<svg version="1.0" xmlns="http://www.w3.org/2000/svg"
 width="7423.000000pt" height="3317.000000pt" viewBox="0 0 7423.000000 3317.000000"
 preserveAspectRatio="xMidYMid meet">

<g transform="translate(0.000000,3317.000000) scale(0.100000,-0.100000)"
fill="#000000" stroke="none">
<path d="M1446 33028 c-290 -1513 -612 -3617 -835 -5458 -292 -2409 -483
-4752 -566 -6960 -35 -932 -40 -1249 -40 -2460 0 -1219 5 -1504 40 -2345 251
-5969 1481 -10326 3649 -12925 325 -390 708 -776 1074 -1082 1225 -1025 2681
-1614 4357 -1762 602 -53 1336 -46 2005 19 1574 154 3367 650 5285 1460 2842
1201 5245 2061 7775 2780 3945 1122 7689 1732 11780 1920 1478 67 2317 79
5335 70 2398 -6 3133 -2 3940 25 2120 70 3738 254 5335 606 2752 607 5289
1720 7955 3489 863 573 1458 1007 2490 1815 790 620 1326 1027 2785 2119 2044
1530 2825 2132 3725 2875 1237 1020 2271 1995 3082 2905 2122 2380 3253 4837
3542 7696 111 1088 94 2280 -49 3500 -66 565 -190 1333 -291 1805 l-11 50
-36167 0 -36167 0 -28 -142z"/>
</g>
</svg>
